<?xml version="1.0" encoding="UTF-8"?>
<!DOCTYPE svg PUBLIC "-//W3C//DTD SVG 1.1//EN" "http://www.w3.org/Graphics/SVG/1.1/DTD/svg11.dtd">

<svg xmlns="http://www.w3.org/2000/svg" xmlns:xlink="http://www.w3.org/1999/xlink" xmlns:xs="http://www.w3.org/2001/XMLSchema" xmlns:wb="http://www.ti.com/webench" version="1.1" width="100%" height="100%" viewBox="0 0 1165.0 440.0" preserveAspectRatio="xMidYMid meet">
  <defs>
    <g id="WB_CONTINUATION">
      <circle xmlns="" opacity="0.01" fill="#ffffff" stroke="#000000" stroke-width="0" cx="0" cy="0" r="14" />
      <line fill="none" stroke="#CC0000" stroke-width="2" x1="0" y1="10" x2="0" y2="-10" />
      <line fill="none" stroke="#CC0000" stroke-width="2" x1="-10" y1="-10" x2="10" y2="-10" />
    </g>
    <g id="WB_BLOCK_IO">
      <circle xmlns="" opacity="0.01" fill="#ffffff" stroke="#000000" stroke-width="0" cx="0" cy="0" r="14" />
      <line stroke="#CC0000" fill="none" stroke-width="2" x1="-5" y1="0" x2="5" y2="0" />
    </g>
    <g id="WB_STARTUP_VOLTAGE_SOURCE">
      <circle xmlns="" opacity="0.01" fill="#ffffff" stroke="#000000" stroke-width="0" cx="0" cy="0" r="14" />
      <circle fill-opacity="0.01" fill="#CC0000" stroke="#CC0000" stroke-width="2" cx="0" cy="0" r="14" />
      <polyline fill="none" stroke="#CC0000" stroke-width="2" points="-6,-11 -6,7 5,9 5,12 " />
      <line fill="none" stroke="#CC0000" stroke-width="2" x1="16" y1="-12" x2="16" y2="-18" />
      <line fill="none" stroke="#CC0000" stroke-width="2" x1="-17" y1="-12" x2="-17" y2="-18" />
      <line fill="none" stroke="#CC0000" stroke-width="2" x1="-14" y1="-15" x2="-20" y2="-15" />
      <line fill="none" stroke="#CC0000" stroke-width="2" x1="-15" y1="0" x2="-30" y2="0" />
      <line fill="none" stroke="#CC0000" stroke-width="2" x1="30" y1="0" x2="15" y2="0" />
    </g>
    <g id="WB_SOURCE_RESISTOR">
      <circle xmlns="" opacity="0.01" fill="#ffffff" stroke="#000000" stroke-width="0" cx="0" cy="0" r="14" />
      <polyline fill="none" stroke="#CC0000" stroke-width="2" stroke-linecap="round" stroke-linejoin="round" points="30,0 20,0 15,-6 7.5,6 0,-6 -7.5,6 -15,-6 -20,0 -30,0" />
    </g>
    <g id="WB_PRIM_STARTUP_VOLTAGE_SOURCE">
      <circle xmlns="" opacity="0.01" fill="#ffffff" stroke="#000000" stroke-width="0" cx="0" cy="0" r="14" />
      <circle fill-opacity="0.01" fill="#CC0000" stroke="#CC0000" stroke-width="2" cx="0" cy="0" r="14" />
      <polyline fill="none" stroke="#CC0000" stroke-width="2" points="-6,-11 -6,7 5,9 5,12 " />
      <line fill="none" stroke="#CC0000" stroke-width="2" x1="16" y1="-12" x2="16" y2="-18" />
      <line fill="none" stroke="#CC0000" stroke-width="2" x1="-17" y1="-12" x2="-17" y2="-18" />
      <line fill="none" stroke="#CC0000" stroke-width="2" x1="-14" y1="-15" x2="-20" y2="-15" />
      <line fill="none" stroke="#CC0000" stroke-width="2" x1="-15" y1="0" x2="-30" y2="0" />
      <line fill="none" stroke="#CC0000" stroke-width="2" x1="30" y1="0" x2="15" y2="0" />
    </g>
    <g id="WB_CURRENT_PROBE">
      <circle xmlns="" opacity="0.01" fill="#ffffff" stroke="#000000" stroke-width="0" cx="0" cy="0" r="14" />
      <line stroke="#CC0000" stroke-width="2" stroke-linecap="square" stroke-linejoin="round" x1="-16" y1="0" x2="-10" y2="0" />
      <polyline stroke="#CC0000" stroke-width="2" stroke-linecap="square" stroke-linejoin="round" points="6,0 3,-3.5 3,3.5 6,0 -6,0 " />
      <line stroke="#CC0000" stroke-width="2" stroke-linecap="square" stroke-linejoin="round" x1="10" y1="0" x2="16" y2="0" />
      <rect stroke-width="1" x="-9.5" y="-7" fill="none" stroke="#CC0000" width="19" height="14" />
    </g>
    <g id="WB_PWL_CURRENT_LOAD">
      <circle xmlns="" opacity="0.01" fill="#ffffff" stroke="#000000" stroke-width="0" cx="0" cy="0" r="14" />
      <circle fill-opacity="0.01" fill="#CC0000" stroke="#CC0000" stroke-width="2" cx="0" cy="0" r="14" />
      <line y1="0" x2="-20" stroke="#CC0000" x1="-30" fill="none" stroke-width="2" y2="0" />
      <line y1="0" x2="20" stroke="#CC0000" x1="30" fill="none" stroke-width="2" y2="0" />
      <polyline stroke="#CC0000" points="-7,6 4,8  " stroke-linejoin="round" fill="none" stroke-width="2" stroke-linecap="round" />
      <polyline stroke="#CC0000" points="-7,-6 4,-8  " stroke-linejoin="round" fill="none" stroke-width="2" stroke-linecap="round" />
      <polyline stroke="#CC0000" points="-20,0 -15,0  " stroke-linejoin="round" fill="none" stroke-width="2" stroke-linecap="round" />
      <polyline stroke="#CC0000" points="20,0 15,0  " stroke-linejoin="round" fill="none" stroke-width="2" stroke-linecap="round" />
      <polyline stroke="#CC0000" points="-7,-6 -7,6  " stroke-linejoin="round" fill="none" stroke-width="2" stroke-linecap="round" />
      <polyline stroke="#CC0000" points="4,-8 4,-11  " stroke-linejoin="round" fill="none" stroke-width="2" stroke-linecap="round" />
      <polyline stroke="#CC0000" points="4,8 4,11  " stroke-linejoin="round" fill="none" stroke-width="2" stroke-linecap="round" />
      <line x1="23" y1="-13" x2="23" y2="-7" stroke="#CC0000" fill="none" stroke-width="2" stroke-linecap="round" />
      <line x1="-23" y1="-13" x2="-23" y2="-7" stroke="#CC0000" fill="none" stroke-width="2" stroke-linecap="round" />
      <line x1="-26" y1="-10" x2="-20" y2="-10" stroke="#CC0000" fill="none" stroke-width="2" stroke-linecap="round" />
    </g>
    <g id="WB_CURRENT_LOAD">
      <circle xmlns="" opacity="0.01" fill="#ffffff" stroke="#000000" stroke-width="0" cx="0" cy="0" r="14" />
      <path fill="none" stroke="#CC0000" stroke-width="2" stroke-linecap="round" stroke-linejoin="round" d="M-15,0c 0.1, 4.2, 1.6, 7.7, 4.4, 10.6c 2.8, 2.8, 6.4, 4.3, 10.6, 4.4c 4.3-0.1, 7.8-1.6, 10.6 -4.4c 2.9-2.9, 4.3-6.4, 4.4-10.6" />
      <path fill="none" stroke="#CC0000" stroke-width="2" stroke-linecap="round" stroke-linejoin="round" d="M15,0c -0.1,-4.2,-1.6,-7.7,-4.4,-10.6c-2.8,-2.8,-6.4,-4.3,-10.6,-4.4c-4.3,0.1 -7.8,1.6 -10.6,4.4c-2.9,2.9 -4.3,6.4 -4.4,10.6" />
      <line fill="none" stroke="#CC0000" stroke-width="2" x1="30" y1="0" x2="15" y2="0" />
      <line fill="none" stroke="#CC0000" stroke-width="2" x1="-15" y1="0" x2="-30" y2="0" />
      <line fill="none" stroke="#CC0000" stroke-width="2" stroke-linecap="round" stroke-linejoin="round" x1="3" y1="7" x2="12" y2="0" />
      <line fill="none" stroke="#CC0000" stroke-width="2" stroke-linecap="round" stroke-linejoin="round" x1="3" y1="-7" x2="12" y2="0" />
      <line fill="none" stroke="#CC0000" stroke-width="2" stroke-linecap="round" stroke-linejoin="round" x1="12" y1="0" x2="-12" y2="0" />
    </g>
    <g id="WB_ZERO_VOLT_SOURCE">
      <circle xmlns="" opacity="0.01" fill="#ffffff" stroke="#000000" stroke-width="0" cx="0" cy="0" r="14" />
      <line stroke="#CC0000" fill="none" stroke-width="2" x1="-5" y1="0" x2="5" y2="0" />
    </g>
    <g id="WB_INDUCTOR">
      <circle xmlns="" opacity="0.01" fill="#ffffff" stroke="#000000" stroke-width="0" cx="0" cy="0" r="14" />
      <path fill="none" stroke="#115566" stroke-width="2" stroke-linecap="round" stroke-linejoin="round" d="M-10,0c0-0.6-0.2-1.8-0.6-3.3c-0.5-2.4-2-3.7-4.4-4c-2.4,0.3-3.8,1.6-4.3,4c-0.6,2.3-0.8,3.6-0.7,3M-20,0H-30" />
      <path fill="none" stroke="#115566" stroke-width="2" stroke-linecap="round" stroke-linejoin="round" d="M0,0c0-0.6-0.2-1.8-0.6-3.3c-0.5-2.4-2-3.7-4.4-4c-2.4,0.3-3.8,1.6-4.3,4c-0.6,2.3-0.8,3.6-0.7,4" />
      <path fill="none" stroke="#115566" stroke-width="2" stroke-linecap="round" stroke-linejoin="round" d="M10,0c0-0.6-0.2-1.8-0.6-3.3c-0.5-2.4-2-3.7-4.4-4c-2.4,0.3-3.8,1.6-4.3,4c-0.6,2.3-0.8,3.6-0.7,4" />
      <path fill="none" stroke="#115566" stroke-width="2" stroke-linecap="round" stroke-linejoin="round" d="M30,0H20c0-0.6-0.2-1.8-0.6-3.3c-0.5-2.4-2-3.7-4.4-4c-2.4,0.3-3.8,1.6-4.3,4c-0.6,2.3-0.8,3.6-0.7,4" />
      <path fill="none" stroke="#115566" stroke-width="2" stroke-linecap="round" stroke-linejoin="round" d=" M10,0 c0.1,0.4,0.1,0.6,0,0.7" />
      <path fill="none" stroke="#115566" stroke-width="2" stroke-linecap="round" stroke-linejoin="round" d=" M0,0  c0.1,0.4,0.1,0.6,0,0.7" />
      <path fill="none" stroke="#115566" stroke-width="2" stroke-linecap="round" stroke-linejoin="round" d=" M-10,0c0.1,0.4,0.1,0.6,0,0.7" />
    </g>
    <g id="WB_VOLTAGE_PROBE">
      <circle xmlns="" opacity="0.01" fill="#ffffff" stroke="#000000" stroke-width="0" cx="0" cy="0" r="14" />
      <rect stroke-width="1" width="20" stroke="#CC0000" x="-10" height="19.5" y="-30" fill="#CC0000" fill-opacity="0.01" />
      <polyline stroke="#CC0000" points="7,-27 4,-22 3,-26 0,-18 -1,-22 -5,-14  " stroke-linejoin="round" fill="none" stroke-width="2" stroke-linecap="round" />
      <line y1="0" x2="0" stroke="#CC0000" x1="0" fill="none" stroke-width="2" y2="-10" />
    </g>
    <g id="WB_GND">
      <circle xmlns="" opacity="0.01" fill="#ffffff" stroke="#000000" stroke-width="0" cx="0" cy="0" r="14" />
      <line fill="none" stroke="black" stroke-width="2" x1="0" y1="-10" x2="0" y2="0" />
      <line fill="none" stroke="black" stroke-width="2" x1="-13" y1="0" x2="13" y2="0" />
      <line fill="none" stroke="black" stroke-width="2" x1="-9" y1="4" x2="9" y2="4" />
      <line fill="none" stroke="black" stroke-width="2" x1="-3" y1="8" x2="3" y2="8" />
    </g>
    <g id="WB_RESISTOR">
      <circle xmlns="" opacity="0.01" fill="#ffffff" stroke="#000000" stroke-width="0" cx="0" cy="0" r="14" />
      <polyline fill="none" stroke="#115566" stroke-width="2" stroke-linecap="round" stroke-linejoin="round" points="30,0 20,0 15,-6 7.5,6 0,-6 -7.5,6 -15,-6 -20,0 -30,0" />
    </g>
    <g id="WB_CAPACITOR">
      <circle xmlns="" opacity="0.01" fill="#ffffff" stroke="#000000" stroke-width="0" cx="0" cy="0" r="14" />
      <line y1="0" x2="20" stroke="#115566" x1="30" fill="none" stroke-width="2" y2="0" />
      <line y1="0" x2="-20" stroke="#115566" x1="-30" fill="none" stroke-width="2" y2="0" />
      <polyline stroke="#115566" points="3,12 3,-12  " stroke-linejoin="round" fill="none" stroke-width="2" stroke-linecap="round" />
      <polyline stroke="#115566" points="-20,0 -3,0  " stroke-linejoin="round" fill="none" stroke-width="2" stroke-linecap="round" />
      <polyline stroke="#115566" points="3,0 20,0  " stroke-linejoin="round" fill="none" stroke-width="2" stroke-linecap="round" />
      <polyline stroke="#115566" points="-3,12 -3,-12  " stroke-linejoin="round" fill="none" stroke-width="2" stroke-linecap="round" />
    </g>
    <g id="WB_TLV62130RGT">
      <circle xmlns="" opacity="0.01" fill="#ffffff" stroke="#000000" stroke-width="0" cx="0" cy="0" r="14" />
      <line fill="none" stroke="#000000" stroke-width="2" stroke-linecap="round" stroke-linejoin="round" x1="-60" y1="80" x2="60" y2="80" />
      <line fill="none" stroke="#000000" stroke-width="2" stroke-linecap="round" stroke-linejoin="round" x1="60" y1="80" x2="60" y2="-80" />
      <line fill="none" stroke="#000000" stroke-width="2" stroke-linecap="round" stroke-linejoin="round" x1="60" y1="-80" x2="-60" y2="-80" />
      <line fill="none" stroke="#000000" stroke-width="2" stroke-linecap="round" stroke-linejoin="round" x1="-60" y1="-80" x2="-60" y2="80" />
      <text id="partNumber_label" x="0" y="-67" style="font-family:arial;font-weight:bold;font-size:10px;text-anchor:middle;">TLV62130RGT</text>
      <line fill="none" stroke="#000000" stroke-width="2" stroke-linecap="round" stroke-linejoin="round" x1="80" y1="-60" x2="60" y2="-60" />
      <text id="1" x="56" y="-56" transform="rotate(0,56,-56)" style="font-family:arial;font-weight:normal;font-size:9px;text-anchor:end;">SW</text>
      <line fill="none" stroke="#000000" stroke-width="2" stroke-linecap="round" stroke-linejoin="round" x1="80" y1="-50" x2="60" y2="-50" />
      <text id="2" x="56" y="-46" transform="rotate(0,56,-46)" style="font-family:arial;font-weight:normal;font-size:9px;text-anchor:end;">SW</text>
      <line fill="none" stroke="#000000" stroke-width="2" stroke-linecap="round" stroke-linejoin="round" x1="80" y1="-40" x2="60" y2="-40" />
      <text id="3" x="56" y="-36" transform="rotate(0,56,-36)" style="font-family:arial;font-weight:normal;font-size:9px;text-anchor:end;">SW</text>
      <line fill="none" stroke="#000000" stroke-width="2" stroke-linecap="round" stroke-linejoin="round" x1="80" y1="0" x2="60" y2="0" />
      <text id="4" x="56" y="4" transform="rotate(0,56,4)" style="font-family:arial;font-weight:normal;font-size:9px;text-anchor:end;">PG</text>
      <line fill="none" stroke="#000000" stroke-width="2" stroke-linecap="round" stroke-linejoin="round" x1="80" y1="20" x2="60" y2="20" />
      <text id="5" x="56" y="24" transform="rotate(0,56,24)" style="font-family:arial;font-weight:normal;font-size:9px;text-anchor:end;">FB</text>
      <line fill="none" stroke="#000000" stroke-width="2" stroke-linecap="round" stroke-linejoin="round" x1="80" y1="40" x2="60" y2="40" />
      <text id="6" x="56" y="44" transform="rotate(0,56,44)" style="font-family:arial;font-weight:normal;font-size:9px;text-anchor:end;">AGND</text>
      <line fill="none" stroke="#000000" stroke-width="2" stroke-linecap="round" stroke-linejoin="round" x1="-80" y1="70" x2="-60" y2="70" />
      <text id="7" x="-56" y="74" transform="rotate(0,-56,74)" style="font-family:arial;font-weight:normal;font-size:9px;text-anchor:start;">FSW</text>
      <line fill="none" stroke="#000000" stroke-width="2" stroke-linecap="round" stroke-linejoin="round" x1="-80" y1="40" x2="-60" y2="40" />
      <text id="8" x="-56" y="44" transform="rotate(0,-56,44)" style="font-family:arial;font-weight:normal;font-size:9px;text-anchor:start;">DEF</text>
      <line fill="none" stroke="#000000" stroke-width="2" stroke-linecap="round" stroke-linejoin="round" x1="-80" y1="10" x2="-60" y2="10" />
      <text id="9" x="-56" y="14" transform="rotate(0,-56,14)" style="font-family:arial;font-weight:normal;font-size:9px;text-anchor:start;">SS_TR</text>
      <line fill="none" stroke="#000000" stroke-width="2" stroke-linecap="round" stroke-linejoin="round" x1="-80" y1="-40" x2="-60" y2="-40" />
      <text id="10" x="-56" y="-36" transform="rotate(0,-56,-36)" style="font-family:arial;font-weight:normal;font-size:9px;text-anchor:start;">AVIN</text>
      <line fill="none" stroke="#000000" stroke-width="2" stroke-linecap="round" stroke-linejoin="round" x1="-80" y1="-60" x2="-60" y2="-60" />
      <text id="11" x="-56" y="-56" transform="rotate(0,-56,-56)" style="font-family:arial;font-weight:normal;font-size:9px;text-anchor:start;">PVIN</text>
      <line fill="none" stroke="#000000" stroke-width="2" stroke-linecap="round" stroke-linejoin="round" x1="-80" y1="-50" x2="-60" y2="-50" />
      <text id="12" x="-56" y="-46" transform="rotate(0,-56,-46)" style="font-family:arial;font-weight:normal;font-size:9px;text-anchor:start;">PVIN</text>
      <line fill="none" stroke="#000000" stroke-width="2" stroke-linecap="round" stroke-linejoin="round" x1="-80" y1="-20" x2="-60" y2="-20" />
      <text id="13" x="-56" y="-16" transform="rotate(0,-56,-16)" style="font-family:arial;font-weight:normal;font-size:9px;text-anchor:start;">EN</text>
      <line fill="none" stroke="#000000" stroke-width="2" stroke-linecap="round" stroke-linejoin="round" x1="80" y1="-20" x2="60" y2="-20" />
      <text id="14" x="56" y="-16" transform="rotate(0,56,-16)" style="font-family:arial;font-weight:normal;font-size:9px;text-anchor:end;">VOS</text>
      <line fill="none" stroke="#000000" stroke-width="2" stroke-linecap="round" stroke-linejoin="round" x1="80" y1="50" x2="60" y2="50" />
      <text id="15" x="56" y="54" transform="rotate(0,56,54)" style="font-family:arial;font-weight:normal;font-size:9px;text-anchor:end;">PGND</text>
      <line fill="none" stroke="#000000" stroke-width="2" stroke-linecap="round" stroke-linejoin="round" x1="80" y1="60" x2="60" y2="60" />
      <text id="16" x="56" y="64" transform="rotate(0,56,64)" style="font-family:arial;font-weight:normal;font-size:9px;text-anchor:end;">PGND</text>
      <line fill="none" stroke="#000000" stroke-width="2" stroke-linecap="round" stroke-linejoin="round" x1="80" y1="70" x2="60" y2="70" />
      <text id="17" x="56" y="74" transform="rotate(0,56,74)" style="font-family:arial;font-weight:normal;font-size:9px;text-anchor:end;">EP</text>
    </g>
    <g id="WB_GND_SIGNAL">
      <circle xmlns="" opacity="0.01" fill="#ffffff" stroke="#000000" stroke-width="0" cx="0" cy="0" r="14" />
      <polygon fill="black" stroke="black" stroke-width="2" points="12.5,0 0,10 -12.5,0 12.5,0" />
      <line fill="none" stroke="black" stroke-width="2" x1="0" y1="-10" x2="0" y2="0" />
    </g>
    <g id="WB_PWL_VOLTAGE_SOURCE">
      <circle xmlns="" opacity="0.01" fill="#ffffff" stroke="#000000" stroke-width="0" cx="0" cy="0" r="14" />
      <circle fill-opacity="0.01" fill="#CC0000" stroke="#CC0000" stroke-width="2" cx="0" cy="0" r="14" />
      <line y1="0" x2="-20" stroke="#CC0000" x1="-30" fill="none" stroke-width="2" y2="0" />
      <line y1="0" x2="20" stroke="#CC0000" x1="30" fill="none" stroke-width="2" y2="0" />
      <polyline stroke="#CC0000" points="-7,6 4,8  " stroke-linejoin="round" fill="none" stroke-width="2" stroke-linecap="round" />
      <polyline stroke="#CC0000" points="-7,-6 4,-8  " stroke-linejoin="round" fill="none" stroke-width="2" stroke-linecap="round" />
      <polyline stroke="#CC0000" points="-20,0 -15,0  " stroke-linejoin="round" fill="none" stroke-width="2" stroke-linecap="round" />
      <polyline stroke="#CC0000" points="20,0 15,0  " stroke-linejoin="round" fill="none" stroke-width="2" stroke-linecap="round" />
      <polyline stroke="#CC0000" points="-7,-6 -7,6  " stroke-linejoin="round" fill="none" stroke-width="2" stroke-linecap="round" />
      <polyline stroke="#CC0000" points="4,-8 4,-11  " stroke-linejoin="round" fill="none" stroke-width="2" stroke-linecap="round" />
      <polyline stroke="#CC0000" points="4,8 4,11  " stroke-linejoin="round" fill="none" stroke-width="2" stroke-linecap="round" />
      <line x1="23" y1="-13" x2="23" y2="-7" stroke="#CC0000" fill="none" stroke-width="2" stroke-linecap="round" />
      <line x1="-23" y1="-13" x2="-23" y2="-7" stroke="#CC0000" fill="none" stroke-width="2" stroke-linecap="round" />
      <line x1="-26" y1="-10" x2="-20" y2="-10" stroke="#CC0000" fill="none" stroke-width="2" stroke-linecap="round" />
    </g>
    <g id="WB_PRIM_PWL_VOLTAGE_SOURCE">
      <circle xmlns="" opacity="0.01" fill="#ffffff" stroke="#000000" stroke-width="0" cx="0" cy="0" r="14" />
      <circle fill-opacity="0.01" fill="#CC0000" stroke="#CC0000" stroke-width="2" cx="0" cy="0" r="14" />
      <line x1="-30" y1="0" x2="-15" y2="0" stroke="#CC0000" fill="none" stroke-width="2" />
      <line x1="30" y1="0" x2="15" y2="0" stroke="#CC0000" fill="none" stroke-width="2" />
      <polyline stroke="#CC0000" points="0,13 0,8 -7,6 -7,0 7,-4 0,-8 0,-13" stroke-linejoin="round" fill="none" stroke-width="2" stroke-linecap="round" />
      <line x1="23" y1="-13" x2="23" y2="-7" stroke="#CC0000" fill="none" stroke-width="2" stroke-linecap="round" />
      <line x1="-23" y1="-13" x2="-23" y2="-7" stroke="#CC0000" fill="none" stroke-width="2" stroke-linecap="round" />
      <line x1="-26" y1="-10" x2="-20" y2="-10" stroke="#CC0000" fill="none" stroke-width="2" stroke-linecap="round" />
    </g>
    <g id="WB_LOAD_RESISTOR">
      <circle xmlns="" opacity="0.01" fill="#ffffff" stroke="#000000" stroke-width="0" cx="0" cy="0" r="14" />
      <polyline fill="none" stroke="#CC0000" stroke-width="2" stroke-linecap="round" stroke-linejoin="round" points="30,0 20,0 15,-6 7.5,6 0,-6 -7.5,6 -15,-6 -20,0 -30,0" />
    </g>
    <g id="WB_PRIMITIVE_BATTERY">
      <circle xmlns="" opacity="0.01" fill="#ffffff" stroke="#000000" stroke-width="0" cx="0" cy="0" r="14" />
      <line fill="none" stroke="#CC0000" stroke-width="2" x1="-8" y1="0" x2="-30" y2="0" />
      <line fill="none" stroke="#CC0000" stroke-width="2" x1="-7" y1="12" x2="-7" y2="-12" />
      <line fill="none" stroke="#CC0000" stroke-width="2" x1="4" y1="12" x2="4" y2="-12" />
      <line fill="none" stroke="#CC0000" stroke-width="2" x1="30" y1="0" x2="11" y2="0" />
      <line fill="none" stroke="#CC0000" stroke-width="2" x1="-2" y1="5" x2="-2" y2="-5" />
      <line fill="none" stroke="#CC0000" stroke-width="2" x1="-1" y1="5" x2="-1" y2="-5" />
      <line fill="none" stroke="#CC0000" stroke-width="2" x1="-14" y1="-9" x2="-14" y2="-15" />
      <line fill="none" stroke="#CC0000" stroke-width="2" x1="-11" y1="-12" x2="-17" y2="-12" />
      <line fill="none" stroke="#CC0000" stroke-width="2" x1="13" y1="-10" x2="13" y2="-15" />
      <line fill="none" stroke="#CC0000" stroke-width="2" x1="10" y1="5" x2="10" y2="-5" />
      <line fill="none" stroke="#CC0000" stroke-width="2" x1="9" y1="5" x2="9" y2="-5" />
    </g>
    <g id="WB_BATTERY">
      <circle xmlns="" opacity="0.01" fill="#ffffff" stroke="#000000" stroke-width="0" cx="0" cy="0" r="14" />
      <line fill="none" stroke="#CC0000" stroke-width="2" x1="-8" y1="0" x2="-30" y2="0" />
      <line fill="none" stroke="#CC0000" stroke-width="2" x1="-7" y1="12" x2="-7" y2="-12" />
      <line fill="none" stroke="#CC0000" stroke-width="2" x1="4" y1="12" x2="4" y2="-12" />
      <line fill="none" stroke="#CC0000" stroke-width="2" x1="30" y1="0" x2="11" y2="0" />
      <line fill="none" stroke="#CC0000" stroke-width="2" x1="-2" y1="5" x2="-2" y2="-5" />
      <line fill="none" stroke="#CC0000" stroke-width="2" x1="-1" y1="5" x2="-1" y2="-5" />
      <line fill="none" stroke="#CC0000" stroke-width="2" x1="-14" y1="-9" x2="-14" y2="-15" />
      <line fill="none" stroke="#CC0000" stroke-width="2" x1="-11" y1="-12" x2="-17" y2="-12" />
      <line fill="none" stroke="#CC0000" stroke-width="2" x1="13" y1="-10" x2="13" y2="-15" />
      <line fill="none" stroke="#CC0000" stroke-width="2" x1="10" y1="5" x2="10" y2="-5" />
      <line fill="none" stroke="#CC0000" stroke-width="2" x1="9" y1="5" x2="9" y2="-5" />
    </g>
  </defs>
  <use id="L1" class="comp" xlink:href="#WB_INDUCTOR" x="690.0" y="110.0" partNo="XAL4020-222MEB" thermalId="XAL4020" l="2.2uH" dcr="35.2mOhm" manufacturer="Coilcraft" />
  <text for="L1" x="670.0" y="95.0" style="font-family:arial;font-size:13px;stroke-width:0.5;stroke:#115566;fill:#115566;">L1</text>
  <text for="L1" x="670.0" y="130.0" style="font-family:arial;font-size:10px;stroke-width:0.1;stroke:#CC0000;fill:#CC0000;">2.2uH</text>
  <text for="L1" x="670.0" y="140.0" style="font-family:arial;font-size:10px;stroke-width:0.1;stroke:#CC0000;fill:#CC0000;">35.2mOhm</text>
  <use id="GND3" class="other" xlink:href="#WB_GND" x="830.0" y="275.0" />
  <use id="Rfb1" class="comp" xlink:href="#WB_RESISTOR" x="830.0" y="225.0" transform="rotate(-270, 830.0, 225.0)" partNo="RC0603FR-07180KL" thermalId="0603" resistance="180kOhm" manufacturer="Yageo" />
  <text for="Rfb1" x="845.0" y="225.0" style="font-family:arial;font-size:13px;stroke-width:0.5;stroke:#115566;fill:#115566;">Rfb1</text>
  <text for="Rfb1" x="845.0" y="235.0" style="font-family:arial;font-size:10px;stroke-width:0.1;stroke:#CC0000;fill:#CC0000;">180kOhm</text>
  <use id="Cout" class="comp" xlink:href="#WB_CAPACITOR" x="990.0" y="250.0" transform="rotate(-90, 990.0, 250.0)" cap="22uF" partNo="GRM188R60J226MEA0D" thermalId="0603" esr="1mOhm" manufacturer="MuRata" />
  <text for="Cout" x="1005.0" y="250.0" style="font-family:arial;font-size:13px;stroke-width:0.5;stroke:#115566;fill:#115566;">Cout</text>
  <text for="Cout" x="1005.0" y="260.0" style="font-family:arial;font-size:10px;stroke-width:0.1;stroke:#CC0000;fill:#CC0000;">22uF</text>
  <text for="Cout" x="1005.0" y="270.0" style="font-family:arial;font-size:10px;stroke-width:0.1;stroke:#CC0000;fill:#CC0000;">1mOhm</text>
  <use id="Css" class="comp" xlink:href="#WB_CAPACITOR" x="285.0" y="245.0" transform="rotate(270, 285.0, 245.0)" cap="390pF" partNo="GRM1555C1E391JA01D" thermalId="0402" esr="1mOhm" manufacturer="MuRata" />
  <text for="Css" x="300.0" y="245.0" style="font-family:arial;font-size:13px;stroke-width:0.5;stroke:#115566;fill:#115566;">Css</text>
  <text for="Css" x="300.0" y="255.0" style="font-family:arial;font-size:10px;stroke-width:0.1;stroke:#CC0000;fill:#CC0000;">390pF</text>
  <text for="Css" x="300.0" y="265.0" style="font-family:arial;font-size:10px;stroke-width:0.1;stroke:#CC0000;fill:#CC0000;">1mOhm</text>
  <use id="Rpg" class="comp" xlink:href="#WB_RESISTOR" x="760.0" y="140.0" transform="rotate(-90, 760.0, 140.0)" partNo="CRCW0402100KFKED" thermalId="0402" resistance="100kOhm" manufacturer="Vishay-Dale" />
  <text for="Rpg" x="775.0" y="140.0" style="font-family:arial;font-size:13px;stroke-width:0.5;stroke:#115566;fill:#115566;">Rpg</text>
  <text for="Rpg" x="775.0" y="150.0" style="font-family:arial;font-size:10px;stroke-width:0.1;stroke:#CC0000;fill:#CC0000;">100kOhm</text>
  <use id="Rfb2" class="comp" xlink:href="#WB_RESISTOR" x="830.0" y="150.0" transform="rotate(-90, 830.0, 150.0)" partNo="CRCW0402562KFKED" thermalId="0402" resistance="562kOhm" manufacturer="Vishay-Dale" />
  <text for="Rfb2" x="845.0" y="150.0" style="font-family:arial;font-size:13px;stroke-width:0.5;stroke:#115566;fill:#115566;">Rfb2</text>
  <text for="Rfb2" x="845.0" y="160.0" style="font-family:arial;font-size:10px;stroke-width:0.1;stroke:#CC0000;fill:#CC0000;">562kOhm</text>
  <use id="U1" class="comp" xlink:href="#WB_TLV62130RGT" x="495.0" y="170.0" />
  <text for="U1" x="475.0" y="170.0" style="font-family:arial;font-size:13px;stroke-width:0.5;stroke:#115566;fill:#115566;">U1</text>
  <use id="Cin" class="comp" xlink:href="#WB_CAPACITOR" x="155.0" y="245.0" transform="rotate(-90, 155.0, 245.0)" cap="10uF" partNo="C0805C106K8PACTU" thermalId="0805" esr="3mOhm" manufacturer="Kemet" />
  <text for="Cin" x="170.0" y="245.0" style="font-family:arial;font-size:13px;stroke-width:0.5;stroke:#115566;fill:#115566;">Cin</text>
  <text for="Cin" x="170.0" y="255.0" style="font-family:arial;font-size:10px;stroke-width:0.1;stroke:#CC0000;fill:#CC0000;">10uF</text>
  <text for="Cin" x="170.0" y="265.0" style="font-family:arial;font-size:10px;stroke-width:0.1;stroke:#CC0000;fill:#CC0000;">3mOhm</text>
  <use id="GND" class="other" xlink:href="#WB_GND" x="495.0" y="340.0" />
  <use id="GND2" class="other" xlink:href="#WB_GND" x="585.0" y="275.0" />
  <use id="Cinx" class="comp" xlink:href="#WB_CAPACITOR" x="225.0" y="210.0" transform="rotate(-90, 225.0, 210.0)" cap="100nF" partNo="GRM155R71C104KA88D" thermalId="0402" esr="1mOhm" manufacturer="MuRata" />
  <text for="Cinx" x="240.0" y="210.0" style="font-family:arial;font-size:13px;stroke-width:0.5;stroke:#115566;fill:#115566;">Cinx</text>
  <text for="Cinx" x="240.0" y="220.0" style="font-family:arial;font-size:10px;stroke-width:0.1;stroke:#CC0000;fill:#CC0000;">100nF</text>
  <text for="Cinx" x="240.0" y="230.0" style="font-family:arial;font-size:10px;stroke-width:0.1;stroke:#CC0000;fill:#CC0000;">1mOhm</text>
  <use id="GND4" class="other" xlink:href="#WB_GND_SIGNAL" x="345.0" y="220.0" />
  <use id="Vin" class="other" xlink:href="#WB_BATTERY" x="100.0" y="190.0" transform="rotate(-270, 100.0, 190.0)" />
  <text for="Vin" x="115.0" y="190.0" style="font-family:arial;font-size:13px;stroke-width:0.5;stroke:#CC0000;fill:#CC0000;">Vin</text>
  <use id="Iout" class="other" xlink:href="#WB_CURRENT_LOAD" x="1050.0" y="250.0" transform="rotate(-270, 1050.0, 250.0)" />
  <text for="Iout" x="1065.0" y="250.0" style="font-family:arial;font-size:13px;stroke-width:0.5;stroke:#CC0000;fill:#CC0000;">Iout</text>
  <line x1="225.0" y1="180.0" x2="225.0" y2="110.0" stroke="#000000" stroke-width="2" fill="none" />
  <line x1="225.0" y1="330.0" x2="225.0" y2="240.0" stroke="#000000" stroke-width="2" fill="none" />
  <line x1="405.0" y1="305.0" x2="405.0" y2="240.0" stroke="#000000" stroke-width="2" fill="none" />
  <line x1="890.0" y1="110.0" x2="890.0" y2="305.0" stroke="#000000" stroke-width="2" fill="none" />
  <line x1="405.0" y1="305.0" x2="890.0" y2="305.0" stroke="#000000" stroke-width="2" fill="none" />
  <line x1="405.0" y1="240.0" x2="425.0" y2="240.0" stroke="#000000" stroke-width="2" fill="none" />
  <line x1="575.0" y1="120.0" x2="605.0" y2="120.0" stroke="#000000" stroke-width="2" fill="none" />
  <line x1="155.0" y1="110.0" x2="155.0" y2="215.0" stroke="#000000" stroke-width="2" fill="none" />
  <line x1="355.0" y1="130.0" x2="355.0" y2="110.0" stroke="#000000" stroke-width="2" fill="none" />
  <line x1="285.0" y1="215.0" x2="285.0" y2="180.0" stroke="#000000" stroke-width="2" fill="none" />
  <line x1="575.0" y1="150.0" x2="725.0" y2="150.0" stroke="#000000" stroke-width="2" fill="none" />
  <line x1="725.0" y1="150.0" x2="725.0" y2="110.0" stroke="#000000" stroke-width="2" fill="none" />
  <line x1="830.0" y1="255.0" x2="830.0" y2="265.0" stroke="#000000" stroke-width="2" fill="none" />
  <line x1="575.0" y1="130.0" x2="605.0" y2="130.0" stroke="#000000" stroke-width="2" fill="none" />
  <line x1="605.0" y1="110.0" x2="605.0" y2="130.0" stroke="#000000" stroke-width="2" fill="none" />
  <line x1="830.0" y1="120.0" x2="830.0" y2="110.0" stroke="#000000" stroke-width="2" fill="none" />
  <line x1="355.0" y1="130.0" x2="415.0" y2="130.0" stroke="#000000" stroke-width="2" fill="none" />
  <line x1="575.0" y1="190.0" x2="830.0" y2="190.0" stroke="#000000" stroke-width="2" fill="none" />
  <line x1="575.0" y1="170.0" x2="760.0" y2="170.0" stroke="#000000" stroke-width="2" fill="none" />
  <line x1="285.0" y1="275.0" x2="285.0" y2="330.0" stroke="#000000" stroke-width="2" fill="none" />
  <line x1="990.0" y1="280.0" x2="990.0" y2="330.0" stroke="#000000" stroke-width="2" fill="none" />
  <line x1="830.0" y1="180.0" x2="830.0" y2="195.0" stroke="#000000" stroke-width="2" fill="none" />
  <line x1="415.0" y1="180.0" x2="285.0" y2="180.0" stroke="#000000" stroke-width="2" fill="none" />
  <line x1="155.0" y1="330.0" x2="155.0" y2="275.0" stroke="#000000" stroke-width="2" fill="none" />
  <line x1="575.0" y1="210.0" x2="585.0" y2="210.0" stroke="#000000" stroke-width="2" fill="none" />
  <line x1="575.0" y1="220.0" x2="585.0" y2="220.0" stroke="#000000" stroke-width="2" fill="none" />
  <line x1="290.0" y1="150.0" x2="290.0" y2="110.0" stroke="#000000" stroke-width="2" fill="none" />
  <line x1="575.0" y1="230.0" x2="585.0" y2="230.0" stroke="#000000" stroke-width="2" fill="none" />
  <line x1="575.0" y1="240.0" x2="585.0" y2="240.0" stroke="#000000" stroke-width="2" fill="none" />
  <line x1="585.0" y1="210.0" x2="585.0" y2="265.0" stroke="#000000" stroke-width="2" fill="none" />
  <line x1="415.0" y1="210.0" x2="345.0" y2="210.0" stroke="#000000" stroke-width="2" fill="none" />
  <line x1="415.0" y1="120.0" x2="355.0" y2="120.0" stroke="#000000" stroke-width="2" fill="none" />
  <line x1="415.0" y1="150.0" x2="290.0" y2="150.0" stroke="#000000" stroke-width="2" fill="none" />
  <line x1="990.0" y1="220.0" x2="990.0" y2="110.0" stroke="#000000" stroke-width="2" fill="none" />
  <line x1="575.0" y1="110.0" x2="660.0" y2="110.0" stroke="#000000" stroke-width="2" fill="none" />
  <line x1="720.0" y1="110.0" x2="1050.0" y2="110.0" stroke="#000000" stroke-width="2" fill="none" />
  <line x1="100.0" y1="110.0" x2="415.0" y2="110.0" stroke="#000000" stroke-width="2" fill="none" />
  <line x1="100.0" y1="330.0" x2="1050.0" y2="330.0" stroke="#000000" stroke-width="2" fill="none" />
  <line x1="100.0" y1="160.0" x2="100.0" y2="110.0" stroke="#000000" stroke-width="2" fill="none" />
  <line x1="100.0" y1="330.0" x2="100.0" y2="220.0" stroke="#000000" stroke-width="2" fill="none" />
  <line x1="1050.0" y1="220.0" x2="1050.0" y2="110.0" stroke="#000000" stroke-width="2" fill="none" />
  <line x1="1050.0" y1="330.0" x2="1050.0" y2="280.0" stroke="#000000" stroke-width="2" fill="none" />
  <circle cx="355.0" cy="120.0" r="5" stroke="#000000" stroke-width="0" fill="#000000" />
  <circle cx="605.0" cy="120.0" r="5" stroke="#000000" stroke-width="0" fill="#000000" />
  <circle cx="830.0" cy="190.0" r="5" stroke="#000000" stroke-width="0" fill="#000000" />
  <circle cx="585.0" cy="220.0" r="5" stroke="#000000" stroke-width="0" fill="#000000" />
  <circle cx="585.0" cy="230.0" r="5" stroke="#000000" stroke-width="0" fill="#000000" />
  <circle cx="585.0" cy="240.0" r="5" stroke="#000000" stroke-width="0" fill="#000000" />
  <circle cx="605.0" cy="110.0" r="5" stroke="#000000" stroke-width="0" fill="#000000" />
  <circle cx="890.0" cy="110.0" r="5" stroke="#000000" stroke-width="0" fill="#000000" />
  <circle cx="725.0" cy="110.0" r="5" stroke="#000000" stroke-width="0" fill="#000000" />
  <circle cx="830.0" cy="110.0" r="5" stroke="#000000" stroke-width="0" fill="#000000" />
  <circle cx="990.0" cy="110.0" r="5" stroke="#000000" stroke-width="0" fill="#000000" />
  <circle cx="225.0" cy="110.0" r="5" stroke="#000000" stroke-width="0" fill="#000000" />
  <circle cx="155.0" cy="110.0" r="5" stroke="#000000" stroke-width="0" fill="#000000" />
  <circle cx="355.0" cy="110.0" r="5" stroke="#000000" stroke-width="0" fill="#000000" />
  <circle cx="290.0" cy="110.0" r="5" stroke="#000000" stroke-width="0" fill="#000000" />
  <circle cx="225.0" cy="330.0" r="5" stroke="#000000" stroke-width="0" fill="#000000" />
  <circle cx="285.0" cy="330.0" r="5" stroke="#000000" stroke-width="0" fill="#000000" />
  <circle cx="990.0" cy="330.0" r="5" stroke="#000000" stroke-width="0" fill="#000000" />
  <circle cx="155.0" cy="330.0" r="5" stroke="#000000" stroke-width="0" fill="#000000" />
  <circle cx="760.0" cy="110.0" r="5" stroke="#000000" stroke-width="0" fill="#000000" />
  <circle cx="495.0" cy="330.0" r="5" stroke="#000000" stroke-width="0" fill="#000000" />
</svg>

