<svg xmlns="http://www.w3.org/2000/svg" xml:lang="en" height="401.62pt" width="627.7344577065395pt" viewBox="-54.531200000000005 -271.36999999999995 627.7344577065395 401.62"><polygon points="423.84805770653946,49.67999999999999 431.94805770653943,61.01999999999999 440.04805770653945,49.67999999999999 " style="stroke:black;fill:none;stroke-width:2.0;stroke-linecap:round;stroke-linejoin:round;" /><path d="M 0.0,-0.0 L -12.96,-7.935711258474849e-16" style="stroke:black;fill:none;stroke-width:2.0;stroke-linecap:round;stroke-linejoin:round;" /><path d="M -12.96,-7.935711258474849e-16 L -12.96,6.074999999999998" style="stroke:black;fill:none;stroke-width:2.0;stroke-linecap:round;stroke-linejoin:round;" /><path d="M -12.96,-7.935711258474849e-16 L -12.96,-6.075000000000001" style="stroke:black;fill:none;stroke-width:2.0;stroke-linecap:round;stroke-linejoin:round;" /><path d="M 0.0,-0.0 L 32.4,-0.0 L 32.4,-8.1 L 64.8,-8.1 L 64.8,8.1 L 32.4,8.1 L 32.4,-0.0 M 64.8,-0.0 L 97.19999999999999,-0.0" style="stroke:black;fill:none;stroke-width:2.0;stroke-linecap:round;stroke-linejoin:round;" /><path d="M 97.19999999999999,-0.0 L 97.19999999999999,32.4 L 105.3,32.4 L 105.29999999999998,64.8 L 89.09999999999998,64.8 L 89.1,32.4 L 97.19999999999999,32.4 M 97.19999999999997,64.8 L 97.19999999999997,97.19999999999999" style="stroke:black;fill:none;stroke-width:2.0;stroke-linecap:round;stroke-linejoin:round;" /><path d="M 97.19999999999999,-0.0 L 145.79999999999998,-0.0 L 194.39999999999998,-0.0" style="stroke:black;fill:none;stroke-width:2.0;stroke-linecap:round;stroke-linejoin:round;" /><path d="M 214.64999999999998,-20.25 L 214.64999999999998,20.25 L 284.7980577065395,-20.25 L 214.64999999999998,-60.75 L 214.64999999999998,-20.25 M 284.7980577065395,-20.25" style="stroke:black;fill:none;stroke-width:2.0;stroke-linecap:round;stroke-linejoin:round;" /><path d="M 220.17850721331743,-0.0 L 226.65850721331742,-0.0" style="stroke:black;fill:none;stroke-width:2.0;stroke-linecap:round;stroke-linejoin:round;" /><path d="M 220.17850721331743,-40.5 L 226.65850721331742,-40.5" style="stroke:black;fill:none;stroke-width:2.0;stroke-linecap:round;stroke-linejoin:round;" /><path d="M 223.41850721331744,-43.74 L 223.41850721331744,-37.26" style="stroke:black;fill:none;stroke-width:2.0;stroke-linecap:round;stroke-linejoin:round;" /><path d="M 194.39999999999998,-0.0 L 214.64999999999998,-0.0" style="stroke:black;fill:none;stroke-width:2.0;stroke-linecap:round;stroke-linejoin:round;" /><path d="M 194.39999999999998,-40.5 L 214.64999999999998,-40.5" style="stroke:black;fill:none;stroke-width:2.0;stroke-linecap:round;stroke-linejoin:round;" /><path d="M 284.7980577065395,-20.25 L 305.04805770653945,-20.25" style="stroke:black;fill:none;stroke-width:2.0;stroke-linecap:round;stroke-linejoin:round;" /><path d="M 238.03268590217982,6.965999999999998 L 238.03268590217982,19.926" style="stroke:black;fill:none;stroke-width:2.0;stroke-linecap:round;stroke-linejoin:round;" /><path d="M 238.03268590217982,19.926 L 244.1076859021798,19.926" style="stroke:black;fill:none;stroke-width:2.0;stroke-linecap:round;stroke-linejoin:round;" /><path d="M 238.03268590217982,19.926 L 231.95768590217983,19.926" style="stroke:black;fill:none;stroke-width:2.0;stroke-linecap:round;stroke-linejoin:round;" /><path d="M 238.03268590217982,-47.465999999999994 L 238.03268590217982,-60.42599999999999 L 246.13268590217982,-60.42599999999999 L 238.03268590217982,-68.526 L 229.93268590217983,-60.425999999999995 L 238.03268590217982,-60.42599999999999" style="stroke:black;fill:none;stroke-width:2.0;stroke-linecap:round;stroke-linejoin:round;" /><path d="M 305.04805770653945,-20.25 L 337.4480577065395,-20.25 L 337.4480577065395,-28.349999999999998 L 369.84805770653946,-28.349999999999998 L 369.84805770653946,-12.149999999999999 L 337.4480577065395,-12.149999999999999 L 337.4480577065395,-20.25 M 369.84805770653946,-20.25 L 402.2480577065395,-20.25" style="stroke:black;fill:none;stroke-width:2.0;stroke-linecap:round;stroke-linejoin:round;" /><path d="M 431.94805770653943,-47.24999999999999 L 431.94805770653943,-33.75 L 418.4480577065395,-33.75 L 418.4480577065395,-6.750000000000001 L 431.94805770653943,-6.750000000000001 L 431.94805770653943,6.749999999999997" style="stroke:black;fill:none;stroke-width:2.0;stroke-linecap:round;stroke-linejoin:round;" /><path d="M 426.54805770653945,-6.750000000000001 L 431.94805770653943,-6.750000000000001" style="stroke:black;fill:none;stroke-width:2.0;stroke-linecap:round;stroke-linejoin:round;" /><path d="M 420.4480577065395 -6.750000000000001 L 426.5480577065395 -10.799999999999999 L 426.5480577065395 -2.6999999999999993 Z" style="stroke:black;fill:black;stroke-linecap:butt;stroke-linejoin:miter;" /><path d="M 415.74805770653944,-31.050000000000004 L 415.74805770653944,-9.450000000000001" style="stroke:black;fill:none;stroke-width:2.0;stroke-linecap:round;stroke-linejoin:round;" /><path d="M 402.2480577065395,-20.25 L 415.74805770653944,-20.25" style="stroke:black;fill:none;stroke-width:2.0;stroke-linecap:round;stroke-linejoin:round;" /><path d="M 305.04805770653945,-20.25 L 305.04805770653945,25.433999999999997 M 313.1480577065395,25.433999999999997 L 296.9480577065395,25.433999999999997 M 313.1480577065395,31.265999999999995 L 296.9480577065395,31.265999999999995 M 305.04805770653945,31.265999999999995 L 305.04805770653945,76.95" style="stroke:black;fill:none;stroke-width:2.0;stroke-linecap:round;stroke-linejoin:round;" /><path d="M 305.04805770653945,76.95 L 194.39999999999998,76.95 L 194.39999999999998,-0.0" style="stroke:black;fill:none;stroke-width:2.0;stroke-linecap:round;stroke-linejoin:round;" /><path d="M 431.94805770653943,-47.24999999999999 L 431.94805770653943,-95.84999999999998 L 431.94805770653943,-144.45" style="stroke:black;fill:none;stroke-width:2.0;stroke-linecap:round;stroke-linejoin:round;" /><path d="M 431.94805770653943,-144.45 L 399.54805770653945,-144.45 L 399.54805770653945,-136.35 L 367.1480577065395,-136.35 L 367.1480577065395,-152.54999999999998 L 399.54805770653945,-152.54999999999998 L 399.54805770653945,-144.45 M 367.1480577065395,-144.45 L 334.74805770653944,-144.45" style="stroke:black;fill:none;stroke-width:2.0;stroke-linecap:round;stroke-linejoin:round;" /><path d="M 334.74805770653944,-144.45 L 194.39999999999998,-144.45 L 194.39999999999998,-40.5" style="stroke:black;fill:none;stroke-width:2.0;stroke-linecap:round;stroke-linejoin:round;" /><path d="M 431.94805770653943,-144.45 L 431.94805770653943,-176.85 L 423.84805770653946,-176.85 L 423.84805770653946,-209.24999999999997 L 440.04805770653945,-209.24999999999997 L 440.04805770653945,-176.85 L 431.94805770653943,-176.85 M 431.94805770653943,-209.24999999999997 L 431.94805770653943,-241.64999999999998" style="stroke:black;fill:none;stroke-width:2.0;stroke-linecap:round;stroke-linejoin:round;" /><path d="M 431.94805770653943,-241.64999999999998 L 431.94805770653943,-254.60999999999999" style="stroke:black;fill:none;stroke-width:2.0;stroke-linecap:round;stroke-linejoin:round;" /><path d="M 431.94805770653943,-254.60999999999999 L 425.87305770653944,-254.60999999999999" style="stroke:black;fill:none;stroke-width:2.0;stroke-linecap:round;stroke-linejoin:round;" /><path d="M 431.94805770653943,-254.60999999999999 L 438.0230577065395,-254.60999999999999" style="stroke:black;fill:none;stroke-width:2.0;stroke-linecap:round;stroke-linejoin:round;" /><path d="M 431.94805770653943,6.749999999999997 L 431.94805770653943,49.67999999999999 M 423.84805770653946,61.01999999999999 L 440.04805770653945,61.01999999999999 M 431.94805770653943,61.01999999999999 L 431.94805770653943,103.94999999999999" style="stroke:black;fill:none;stroke-width:2.0;stroke-linecap:round;stroke-linejoin:round;" /><path d="M 419.79805770653945,57.779999999999994 L 411.249273267506,62.66501967944771" style="stroke:black;fill:none;stroke-width:2.0;stroke-linecap:round;stroke-linejoin:round;" /><path d="M 407.3595439907884 64.88772212328632 L 409.963281139285 60.41453345506111 L 412.5352653957268 64.91550590383432 Z" style="stroke:black;fill:black;stroke-linecap:butt;stroke-linejoin:miter;" /><path d="M 419.79805770653945,50.48999999999999 L 411.249273267506,55.37501967944771" style="stroke:black;fill:none;stroke-width:2.0;stroke-linecap:round;stroke-linejoin:round;" /><path d="M 407.3595439907884 57.597722123286324 L 409.963281139285 53.124533455061105 L 412.5352653957268 57.6255059038343 Z" style="stroke:black;fill:black;stroke-linecap:butt;stroke-linejoin:miter;" /><path d="M 444.90805770653947,22.95 L 444.90805770653947,78.02999999999999" style="stroke:black;fill:none;stroke-width:2.0;stroke-linecap:round;stroke-linejoin:round;" /><path d="M 444.90805770653947 85.74999999999999 L 441.66805770653946 78.02999999999999 L 448.1480577065395 78.02999999999999 Z" style="stroke:black;fill:black;stroke-linecap:butt;stroke-linejoin:miter;" /><path d="M 431.94805770653943,103.94999999999999 L 431.94805770653943,116.90999999999998 L 423.84805770653946,116.90999999999998 L 431.94805770653943,125.00999999999998 L 440.04805770653945,116.90999999999998 L 431.94805770653943,116.90999999999998" style="stroke:black;fill:none;stroke-width:2.0;stroke-linecap:round;stroke-linejoin:round;" /><path d="M 431.94805770653943,6.749999999999997 L 480.54805770653945,6.749999999999997 L 529.1480577065395,6.749999999999997" style="stroke:black;fill:none;stroke-width:2.0;stroke-linecap:round;stroke-linejoin:round;" /><text x="-16.2" y="-7.700000000000001" fill="black" font-size="14.0" font-family="sans" text-anchor="end" transform="rotate(0 -16.2 -2.1000000000000005)"><tspan x="-16.2" dy="11.200000000000001">Vvar</tspan></text><text x="48.599999999999994" y="-24.64" fill="black" font-size="14.0" font-family="sans" text-anchor="middle" transform="rotate(0 48.599999999999994 -13.44)"><tspan x="48.599999999999994" dy="11.200000000000001">33.2KΩ 1%</tspan></text><text x="85.86" y="40.89999999999999" fill="black" font-size="14.0" font-family="sans" text-anchor="end" transform="rotate(0 85.86 46.49999999999999)"><tspan x="85.86" dy="11.200000000000001">1.33MΩ 1%</tspan></text><text x="238.03268590217982" y="21.065999999999995" fill="black" font-size="14.0" font-family="sans" text-anchor="middle" transform="rotate(0 238.03268590217982 21.066)"><tspan x="238.03268590217982" dy="11.200000000000001">Vvar</tspan></text><text x="353.6480577065395" y="-44.89" fill="black" font-size="14.0" font-family="sans" text-anchor="middle" transform="rotate(0 353.6480577065395 -33.69)"><tspan x="353.6480577065395" dy="11.200000000000001">500Ω</tspan></text><text x="316.3880577065395" y="20.65" fill="black" font-size="14.0" font-family="sans" text-anchor="start" transform="rotate(0 316.3880577065395 26.25)"><tspan x="316.3880577065395" dy="11.200000000000001">100pF</tspan></text><text x="383.34805770653946" y="-169.09" fill="black" font-size="14.0" font-family="sans" text-anchor="middle" transform="rotate(0 383.34805770653946 -157.89000000000001)"><tspan x="383.34805770653946" dy="11.200000000000001">500KΩ</tspan></text><text x="420.60805770653946" y="-200.74999999999997" fill="black" font-size="14.0" font-family="sans" text-anchor="end" transform="rotate(0 420.60805770653946 -195.14999999999998)"><tspan x="420.60805770653946" dy="11.200000000000001">1Ω 1%</tspan></text><text x="441.2630577065394" y="-255.82999999999998" fill="black" font-size="14.0" font-family="sans" text-anchor="start" transform="rotate(0 441.2630577065394 -250.23)"><tspan x="441.2630577065394" dy="11.200000000000001">Vvar</tspan></text><text x="448.1480577065395" y="47.64999999999999" fill="black" font-size="14.0" font-family="sans" text-anchor="start" transform="rotate(0 448.1480577065395 53.24999999999999)"><tspan x="448.1480577065395" dy="11.200000000000001">I</tspan></text><circle cx="97.19999999999999" cy="-0.0" r="2.4299999999999997" style="stroke:black;fill:black;stroke-width:2.0;" /><circle cx="97.19999999999997" cy="97.19999999999999" r="2.4299999999999997" style="stroke:black;fill:white;stroke-width:2.0;" /><text x="97.19999999999997" y="100.76999999999998" fill="black" font-size="14.0" font-family="sans" text-anchor="middle" transform="rotate(0 97.19999999999997 100.76999999999998)"><tspan x="97.19999999999997" dy="11.200000000000001">Vcontrol</tspan></text><circle cx="305.04805770653945" cy="-20.25" r="2.4299999999999997" style="stroke:black;fill:black;stroke-width:2.0;" /><circle cx="194.39999999999998" cy="-0.0" r="2.4299999999999997" style="stroke:black;fill:black;stroke-width:2.0;" /><circle cx="431.94805770653943" cy="-144.45" r="2.4299999999999997" style="stroke:black;fill:black;stroke-width:2.0;" /><circle cx="431.94805770653943" cy="6.749999999999997" r="2.4299999999999997" style="stroke:black;fill:black;stroke-width:2.0;" /><circle cx="529.1480577065395" cy="6.749999999999997" r="2.4299999999999997" style="stroke:black;fill:white;stroke-width:2.0;" /><text x="529.1480577065395" y="-12.220000000000002" fill="black" font-size="14.0" font-family="sans" text-anchor="middle" transform="rotate(0 529.1480577065395 -1.0200000000000018)"><tspan x="529.1480577065395" dy="11.200000000000001">Vmonitor</tspan></text></svg>